<svg width="164" height="164" viewBox="0 0 164 164" fill="none" xmlns="http://www.w3.org/2000/svg">
<path d="M114.8 49.7821C114.567 50.0692 114.318 50.343 114.054 50.6021C114.026 50.6358 114.007 50.6771 114.002 50.7208C113.996 50.7646 114.004 50.809 114.023 50.8488C114.042 50.8885 114.072 50.922 114.109 50.9451C114.147 50.9683 114.19 50.9801 114.234 50.9793C115.185 50.3961 115.937 49.5384 116.391 48.5193C116.506 48.1749 115.973 47.8633 115.8 48.2405C115.349 49.2327 113.644 49.2901 113.193 49.1343C113.131 49.1114 113.062 49.1141 113.002 49.1418C112.942 49.1695 112.896 49.2199 112.873 49.2819C112.85 49.3438 112.853 49.4123 112.881 49.4723C112.908 49.5323 112.959 49.5788 113.021 49.6017C113.592 49.7993 114.201 49.8611 114.8 49.7821ZM111.823 45.6001C111.437 45.9435 111.029 46.2613 110.602 46.5513C110.521 46.6033 110.456 46.6751 110.411 46.7599C110.367 46.8446 110.345 46.9394 110.347 47.0351C110.347 47.3303 111.381 48.1011 111.389 48.1093C111.432 48.1415 111.486 48.1574 111.54 48.1541C111.594 48.1509 111.645 48.1286 111.684 48.0914C111.723 48.0542 111.748 48.0043 111.754 47.9505C111.76 47.8968 111.747 47.8427 111.717 47.7977C111.659 47.6911 111.331 47.2893 111.126 47.0187C112.053 46.0921 112.471 45.7887 112.16 45.5591C112.107 45.5266 112.045 45.513 111.984 45.5204C111.923 45.5279 111.866 45.556 111.823 45.6001ZM111.11 45.0999C111.438 44.9523 111.356 44.5751 111.75 43.5911C111.765 43.5555 111.774 43.5173 111.775 43.4784C111.775 43.4396 111.769 43.4011 111.754 43.3649C111.74 43.3287 111.719 43.2957 111.692 43.2677C111.666 43.2396 111.633 43.2172 111.598 43.2016C111.562 43.1859 111.524 43.1775 111.485 43.1766C111.447 43.1758 111.408 43.1826 111.372 43.1967C111.336 43.2108 111.303 43.2319 111.275 43.2587C111.247 43.2856 111.224 43.3177 111.208 43.3533C110.749 44.3127 110.388 44.5095 110.536 44.8457C110.554 44.9023 110.584 44.9545 110.623 44.9988C110.663 45.0431 110.711 45.0784 110.766 45.1025C110.82 45.1265 110.879 45.1387 110.938 45.1383C110.998 45.1378 111.056 45.1247 111.11 45.0999ZM114.488 46.1413C114.816 45.9937 114.743 45.6083 115.128 44.6325C115.16 44.5607 115.161 44.4793 115.133 44.4063C115.104 44.3332 115.048 44.2745 114.976 44.243C114.905 44.2114 114.823 44.2097 114.75 44.2381C114.677 44.2666 114.618 44.3229 114.587 44.3947C114.21 45.2147 113.767 45.5591 113.906 45.8871C113.925 45.944 113.956 45.9963 113.996 46.0406C114.036 46.0849 114.086 46.1202 114.141 46.1442C114.196 46.1682 114.255 46.1803 114.315 46.1798C114.375 46.1793 114.434 46.1662 114.488 46.1413ZM47.6339 32.3161C47.2403 29.3887 47.3141 29.323 47.0599 29.323C32.7263 29.323 33.4889 29.2246 33.4889 29.528V32.2423C33.4889 32.3571 33.5791 32.4965 33.6939 32.4965C48.1997 32.5457 47.6831 32.6277 47.6339 32.3161ZM52.2177 29.323C48.2981 29.323 48.5277 29.3231 48.4375 29.3887C48.3473 29.4543 48.3637 29.3313 48.7409 32.3653C48.7409 32.6195 48.7819 32.5457 52.2177 32.5457C52.272 32.5457 52.3242 32.5241 52.3626 32.4856C52.4011 32.4472 52.4227 32.395 52.4227 32.3407V29.5199C52.4205 29.4669 52.398 29.4169 52.3598 29.3802C52.3216 29.3435 52.2706 29.323 52.2177 29.323ZM123.23 29.3723L118.031 29.733C118.005 29.733 117.98 29.7382 117.957 29.7481C117.933 29.7581 117.912 29.7728 117.895 29.7912C117.877 29.8095 117.863 29.8313 117.854 29.8552C117.845 29.879 117.841 29.9044 117.842 29.9299V33.0295C117.842 33.0838 117.864 33.136 117.902 33.1744C117.941 33.2129 117.993 33.2345 118.047 33.2345H123.238C123.292 33.2345 123.344 33.2129 123.383 33.1744C123.421 33.136 123.443 33.0838 123.443 33.0295C123.443 29.5198 123.533 29.3641 123.23 29.3723ZM36.1867 43.9683V41.5493C36.1867 41.4949 36.1651 41.4427 36.1266 41.4043C36.0882 41.3659 36.036 41.3442 35.9817 41.3442H33.9727C33.9183 41.3442 33.8662 41.3659 33.8277 41.4043C33.7893 41.4427 33.7677 41.4949 33.7677 41.5493C33.7677 44.2635 33.7677 44.1323 33.8333 44.2143C33.8989 44.2963 33.8333 44.2799 35.9899 44.1733C36.0421 44.1693 36.0911 44.1461 36.1274 44.1083C36.1637 44.0705 36.1848 44.0206 36.1867 43.9683ZM47.8963 40.7949C36.6787 41.3771 37.0969 41.254 37.0969 41.5493C37.0969 44.0585 37.0969 43.9355 37.1543 44.0093C37.2117 44.0831 36.5803 44.0749 47.9045 43.9109C47.9588 43.9109 48.011 43.8893 48.0494 43.8508C48.0879 43.8124 48.1095 43.7602 48.1095 43.7059V40.9999C48.1107 40.9719 48.106 40.944 48.0956 40.918C48.0853 40.892 48.0695 40.8685 48.0493 40.8491C48.0291 40.8297 48.005 40.8148 47.9786 40.8055C47.9522 40.7961 47.9242 40.7925 47.8963 40.7949ZM64.5259 40.7867V43.1647C64.5259 43.219 64.5475 43.2712 64.5859 43.3096C64.6244 43.3481 64.6765 43.3697 64.7309 43.3697C67.5517 43.3697 67.4123 43.3697 67.5025 43.2959C67.5927 43.2221 67.5763 43.2959 67.2073 40.7539C67.2073 40.5079 67.0843 40.5817 64.7473 40.5817C64.719 40.5794 64.6906 40.583 64.6638 40.5923C64.637 40.6016 64.6124 40.6163 64.5916 40.6356C64.5708 40.6548 64.5542 40.6782 64.5429 40.7042C64.5316 40.7302 64.5258 40.7583 64.5259 40.7867ZM76.6045 43.3287C76.6947 43.2221 76.6701 43.3287 76.3831 40.9179C76.3831 40.6637 76.7931 40.7539 68.7489 40.6063C68.7197 40.606 68.6909 40.612 68.6643 40.6238C68.6377 40.6356 68.6139 40.653 68.5945 40.6747C68.5751 40.6964 68.5605 40.722 68.5518 40.7498C68.5431 40.7776 68.5404 40.8069 68.5439 40.8359C68.8555 43.3943 68.7981 43.3943 69.0441 43.3943C77.0801 43.3943 76.5143 43.4599 76.6045 43.3287ZM78.0969 43.3697C81.5901 43.4681 81.3769 43.4845 81.4671 43.3697C81.5573 43.2549 81.5327 43.4271 81.5327 40.7621C81.5305 40.7069 81.5072 40.6548 81.4674 40.6166C81.4276 40.5783 81.3746 40.557 81.3195 40.5571C77.5147 40.7047 77.7361 40.6637 77.6541 40.7621C77.5721 40.8605 77.5967 40.7621 77.9001 43.1647C77.9036 43.2165 77.9253 43.2654 77.9612 43.3029C77.9972 43.3404 78.0452 43.364 78.0969 43.3697ZM37.0559 53.8493C37.5397 50.8153 37.5397 50.9793 37.4495 50.8809C37.3593 50.7825 37.4987 50.7989 34.6287 50.9547C34.5772 50.9588 34.5292 50.9822 34.4942 51.0202C34.4592 51.0582 34.4399 51.108 34.4401 51.1597V53.9969C34.4401 54.0512 34.4617 54.1034 34.5001 54.1418C34.5386 54.1803 34.5907 54.2019 34.6451 54.2019L36.9001 54.0215C36.9409 54.013 36.9781 53.9917 37.0061 53.9608C37.0341 53.9298 37.0515 53.8908 37.0559 53.8493ZM40.8935 53.6688C40.8935 50.6922 40.8935 50.8563 40.8279 50.7661C40.7623 50.6759 40.8771 50.7087 38.6057 50.8071C38.3679 50.8071 38.4171 50.8071 38.0973 53.6443C38.0938 53.6732 38.0965 53.7025 38.1052 53.7303C38.1139 53.7581 38.1285 53.7837 38.1479 53.8054C38.1673 53.8271 38.1911 53.8445 38.2177 53.8563C38.2443 53.8681 38.2731 53.8741 38.3023 53.8738H40.6885C40.7428 53.8738 40.795 53.8523 40.8334 53.8138C40.8719 53.7754 40.8935 53.7232 40.8935 53.6688ZM44.9935 50.6595C44.9935 53.6279 44.9935 53.4639 45.0509 53.5541C45.1083 53.6443 43.8947 53.6853 65.1819 52.5127C65.2104 52.5107 65.2382 52.5029 65.2635 52.4896C65.2888 52.4763 65.311 52.4579 65.3288 52.4355C65.3466 52.4131 65.3594 52.3872 65.3666 52.3596C65.3738 52.3319 65.3751 52.3031 65.3705 52.2749L64.8457 48.9293C64.8376 48.8778 64.8101 48.8313 64.769 48.7994C64.7279 48.7674 64.6761 48.7522 64.6243 48.7571C44.0177 50.5775 44.9935 50.3643 44.9935 50.6595ZM72.2175 51.9879C72.2175 48.0929 72.2175 48.3225 72.1519 48.2323C72.0863 48.1421 72.4389 48.1257 66.2069 48.7407C66.1511 48.7488 66.1005 48.778 66.0654 48.8221C66.0304 48.8663 66.0135 48.9222 66.0183 48.9785C66.5431 52.4143 66.4775 52.4307 66.7235 52.4307L72.0207 52.1929C72.0736 52.1907 72.1237 52.1682 72.1603 52.13C72.197 52.0918 72.2175 52.0408 72.2175 51.9879ZM76.7357 48.3799V51.8895C76.7357 51.9438 76.7573 51.996 76.7957 52.0344C76.8342 52.0729 76.8863 52.0945 76.9407 52.0945H82.1641C82.2184 52.0945 82.2706 52.0729 82.309 52.0344C82.3475 51.996 82.3691 51.9438 82.3691 51.8895C82.3691 47.8715 82.3691 48.1421 82.3035 48.0519C82.2379 47.9617 82.6233 47.9699 76.9325 48.1749C76.8795 48.177 76.8295 48.1995 76.7928 48.2377C76.7561 48.2759 76.7356 48.3269 76.7357 48.3799ZM102.959 38.2037C97.2193 38.5563 97.4079 38.4415 97.4079 38.7203V41.8937C97.4079 41.948 97.4295 42.0002 97.4679 42.0386C97.5063 42.0771 97.5585 42.0987 97.6129 42.0987H102.976C103.03 42.0987 103.082 42.0771 103.121 42.0386C103.159 42.0002 103.181 41.948 103.181 41.8937C103.181 38.4087 103.271 38.1873 102.959 38.2037ZM39.2781 64.8783C39.5323 60.8275 39.5405 61.1555 39.4585 61.0653C39.3765 60.9751 39.7045 60.9997 35.0141 60.9997C34.9597 60.9997 34.9076 61.0213 34.8691 61.0597C34.8307 61.0981 34.8091 61.1503 34.8091 61.2047V64.8701C34.8091 64.9244 34.8307 64.9766 34.8691 65.015C34.9076 65.0535 34.9597 65.0751 35.0141 65.0751H39.0731C39.1255 65.0732 39.1753 65.0521 39.2131 65.0158C39.251 64.9795 39.2741 64.9305 39.2781 64.8783ZM50.0611 60.7701C50.0081 60.7722 49.9581 60.7947 49.9214 60.8329C49.8847 60.8711 49.8642 60.9221 49.8643 60.9751V64.0829C49.8643 64.1372 49.8859 64.1894 49.9243 64.2278C49.9628 64.2663 50.0149 64.2879 50.0693 64.2879H53.3001C53.3544 64.2879 53.4066 64.2663 53.445 64.2278C53.4835 64.1894 53.5051 64.1372 53.5051 64.0829V60.8521C53.5029 60.7969 53.4796 60.7448 53.4398 60.7066C53.4 60.6683 53.347 60.647 53.2919 60.6471L50.0611 60.7701ZM69.0113 60.1386C53.9479 60.5322 54.7187 60.4913 54.7187 60.7865C54.7187 64.2715 54.7187 64.0665 54.7761 64.1567C54.8335 64.2469 53.9561 64.2551 69.0277 63.8943C69.0799 63.8903 69.1289 63.8671 69.1652 63.8293C69.2015 63.7915 69.2226 63.7416 69.2245 63.6893V60.3436C69.2257 60.3157 69.221 60.2878 69.2106 60.2618C69.2003 60.2358 69.1844 60.2123 69.1643 60.1929C69.1441 60.1735 69.12 60.1586 69.0936 60.1493C69.0672 60.1399 69.0392 60.1363 69.0113 60.1386ZM82.0985 60.0649C81.7541 63.4433 81.7459 63.2383 81.8361 63.3449C81.9263 63.4515 81.4015 63.4105 88.3469 63.4105C88.381 63.4137 88.4154 63.4083 88.4469 63.3948C88.4784 63.3813 88.506 63.3601 88.5272 63.3332C88.5484 63.3063 88.5625 63.2745 88.5683 63.2407C88.574 63.207 88.5712 63.1723 88.5601 63.1399C87.8385 59.7369 87.9123 59.7204 87.6663 59.7286C81.9263 59.8598 82.1231 59.8107 82.0985 60.0649ZM90.1099 63.3695H92.4715C92.5231 63.3696 92.5729 63.3503 92.6109 63.3153C92.6489 63.2804 92.6723 63.2323 92.6765 63.1809C93.0209 59.4171 93.0291 59.6549 92.9307 59.5565C92.8323 59.4581 93.0783 59.4827 89.2489 59.7123C89.2194 59.7149 89.1908 59.7239 89.1651 59.7387C89.1394 59.7535 89.1172 59.7736 89.1001 59.7978C89.0829 59.8219 89.0712 59.8495 89.0658 59.8786C89.0603 59.9078 89.0612 59.9377 89.0685 59.9665C89.9705 63.4679 89.8885 63.3695 90.1099 63.3695ZM58.5153 27.9291C55.4567 30.2169 55.0303 30.4383 55.0139 30.7253C55.0139 31.1599 56.6539 32.6277 56.7113 32.6441C56.7568 32.669 56.8093 32.6783 56.8606 32.6706C56.912 32.6629 56.9594 32.6386 56.9957 32.6014C57.0319 32.5643 57.055 32.5162 57.0614 32.4647C57.0678 32.4132 57.0571 32.361 57.0311 32.3161C56.7769 31.9799 56.1537 31.1353 55.9569 30.8565C56.3587 30.4629 58.0643 29.0197 58.8679 28.3965C59.1631 28.1669 58.8105 27.7077 58.5153 27.9291ZM70.0937 27.7159C70.0432 27.6763 69.9804 27.6559 69.9163 27.6584C69.8522 27.6609 69.7911 27.686 69.7439 27.7293C69.6966 27.7727 69.6663 27.8313 69.6582 27.895C69.6502 27.9586 69.665 28.023 69.7001 28.0767C70.4345 29.0573 71.1002 30.0875 71.6927 31.1599C71.6927 31.2419 70.4955 32.7015 70.0117 33.4477C69.9785 33.496 69.9651 33.5553 69.9743 33.6132C69.9834 33.6712 70.0144 33.7234 70.0609 33.7592C70.1073 33.7932 70.1633 33.8115 70.2208 33.8115C70.2783 33.8115 70.3343 33.7932 70.3807 33.7592C70.8399 33.2754 72.1437 31.7913 72.3241 31.5125C72.8161 30.7171 71.2417 28.9623 70.0937 27.7159ZM61.9675 28.2817C61.8231 28.2348 61.6704 28.2192 61.5196 28.2361C61.3688 28.253 61.2233 28.3019 61.0929 28.3795C60.9624 28.4571 60.8501 28.5617 60.7634 28.6862C60.6766 28.8108 60.6175 28.9524 60.5899 29.1017C60.5236 29.7363 60.4962 30.3743 60.5079 31.0123H59.6879C59.6067 31.0249 59.5327 31.0661 59.4793 31.1285C59.4258 31.1909 59.3965 31.2704 59.3965 31.3526C59.3965 31.4347 59.4258 31.5142 59.4793 31.5766C59.5327 31.639 59.6067 31.6802 59.6879 31.6929L60.5489 31.8241C60.5433 32.2631 60.5734 32.7019 60.6391 33.1361C60.7129 33.5789 61.3361 33.4887 61.3853 33.0787C61.4181 32.6857 61.4181 32.2908 61.3853 31.8979C61.7707 31.8979 62.1479 31.8979 62.2053 31.5207C62.2627 31.1435 61.7707 31.0861 61.3853 31.0533C61.3115 29.3477 61.4837 29.0935 61.5165 29.0525C61.7379 28.8803 62.0905 29.0525 61.7625 29.5691C61.7241 29.6258 61.7095 29.6954 61.7218 29.7628C61.734 29.8302 61.7722 29.8902 61.8281 29.9299C62.2217 30.2251 62.8531 28.6999 61.9675 28.2817ZM64.6489 30.9139C64.294 30.9384 63.9378 30.9384 63.5829 30.9139C63.5133 30.9139 63.4465 30.9415 63.3973 30.9907C63.3481 31.0399 63.3205 31.1067 63.3205 31.1763C63.3205 31.2458 63.3481 31.3126 63.3973 31.3618C63.4465 31.411 63.5133 31.4387 63.5829 31.4387L64.4029 31.5453C64.8539 31.6109 64.6079 31.4305 64.7309 32.5211C64.7309 32.6363 64.7767 32.7469 64.8582 32.8284C64.9397 32.9099 65.0502 32.9557 65.1655 32.9557C65.2807 32.9557 65.3913 32.9099 65.4728 32.8284C65.5543 32.7469 65.6001 32.6363 65.6001 32.5211C65.5953 32.2469 65.5762 31.9732 65.5427 31.7011H66.0101C66.1188 31.7011 66.2231 31.6579 66.3 31.581C66.3769 31.5041 66.4201 31.3998 66.4201 31.2911C66.4201 31.1823 66.3769 31.078 66.3 31.0011C66.2231 30.9242 66.1188 30.8811 66.0101 30.8811C65.3295 30.8811 65.4279 30.9303 65.4115 30.7991C65.3459 30.4219 65.2803 30.0364 65.2475 29.6592C65.2475 29.5897 65.2198 29.5229 65.1706 29.4737C65.1214 29.4245 65.0547 29.3969 64.9851 29.3969C64.9155 29.3969 64.8487 29.4245 64.7995 29.4737C64.7503 29.5229 64.7227 29.5897 64.7227 29.6592C64.6817 30.184 64.6489 30.7171 64.6489 30.9139Z" fill="#20232e"/>
<path d="M68.88 30.7498C68.8382 30.4096 68.8135 30.0675 68.8062 29.7248C68.7951 29.6622 68.7624 29.6054 68.7136 29.5645C68.6649 29.5236 68.6033 29.5012 68.5397 29.5012C68.476 29.5012 68.4144 29.5236 68.3657 29.5645C68.317 29.6054 68.2842 29.6622 68.2732 29.7248C68.2732 30.0938 68.224 30.4382 68.1912 30.8072C67.8771 30.8268 67.5622 30.8268 67.2482 30.8072C67.1752 30.8192 67.1089 30.8567 67.0611 30.913C67.0132 30.9693 66.9869 31.0408 66.9869 31.1147C66.9869 31.1886 67.0132 31.2601 67.0611 31.3165C67.1089 31.3728 67.1752 31.4103 67.2482 31.4222C67.5516 31.4222 67.8304 31.4714 68.142 31.496C68.0764 32.2176 68.0108 32.9474 68.5602 32.9474C69.1096 32.9474 69.044 32.2094 68.9784 31.5288C69.4294 31.5288 70.0198 31.5288 70.0034 31.1024C69.987 30.676 69.3556 30.7088 68.88 30.7498ZM52.2176 35.5632C51.1844 35.8338 50.5776 36.8588 50.4792 38.2938C50.4382 39.4828 50.7744 40.9916 49.733 41.6886C49.6607 41.737 49.6043 41.8055 49.5708 41.8857C49.5372 41.9659 49.5281 42.0542 49.5444 42.1396C49.692 42.8612 50.9876 41.828 50.7252 44.8948C50.6261 45.2849 50.6283 45.6937 50.7317 46.0826C50.835 46.4716 51.036 46.8276 51.3156 47.117C51.574 47.3002 51.8708 47.422 52.1834 47.4731C52.4961 47.5243 52.8162 47.5034 53.1196 47.4122C53.176 47.3978 53.226 47.365 53.2618 47.3189C53.2975 47.2729 53.3169 47.2163 53.3169 47.158C53.3169 47.0998 53.2975 47.0432 53.2618 46.9971C53.226 46.9511 53.176 46.9183 53.1196 46.9038C52.5538 46.8218 51.8978 46.9038 51.6026 46.42C51.3522 45.7564 51.3149 45.0312 51.496 44.3454C51.5781 43.9043 51.5516 43.4498 51.4188 43.0212C51.2859 42.5925 51.0507 42.2027 50.7334 41.8854C52.1356 40.1716 50.348 36.7686 52.3734 36.0798C52.426 36.0477 52.4666 35.999 52.4886 35.9414C52.5106 35.8837 52.5129 35.8204 52.4951 35.7613C52.4773 35.7023 52.4404 35.6508 52.3901 35.6149C52.3399 35.5791 52.2792 35.5609 52.2176 35.5632ZM62.5086 36.1454C61.8936 35.4648 61.0326 35.7928 60.3766 35.678C60.3383 35.67 60.2989 35.6695 60.2605 35.6767C60.2221 35.6838 60.1855 35.6985 60.1527 35.7198C60.12 35.7411 60.0917 35.7687 60.0697 35.8009C60.0476 35.8331 60.032 35.8694 60.024 35.9076C60.0159 35.9459 60.0154 35.9853 60.0226 36.0237C60.0297 36.0621 60.0444 36.0987 60.0657 36.1315C60.0871 36.1642 60.1146 36.1924 60.1468 36.2145C60.1791 36.2366 60.2153 36.2522 60.2536 36.2602C60.9424 36.3914 61.7132 36.1946 62.0002 36.8178C62.5414 38.015 61.3032 41.1064 62.3692 42.4184C61.418 43.5746 62.5496 45.4032 61.6968 46.2314C61.3768 46.5145 60.9591 46.6616 60.5324 46.6414C60.4688 46.6302 60.4034 46.6428 60.3485 46.6767C60.2937 46.7107 60.2532 46.7637 60.235 46.8256C60.2167 46.8874 60.2219 46.9539 60.2495 47.0122C60.2772 47.0705 60.3253 47.1166 60.3848 47.1416C60.6211 47.2182 60.8702 47.2472 61.1179 47.2272C61.3655 47.2072 61.6067 47.1384 61.8276 47.0249C62.0486 46.9114 62.245 46.7553 62.4054 46.5656C62.5659 46.376 62.6874 46.1565 62.7628 45.9198C62.8724 45.4395 62.8724 44.9406 62.7628 44.4602C62.4922 42.5004 63.3286 43.0334 63.345 42.4512C63.3614 41.869 62.5824 42.32 62.7218 40.6226C62.9432 38.4004 63.2302 36.9408 62.5086 36.1454Z" fill="#534B52"/>
<path d="M54.2594 39.4255C53.9973 39.4086 53.7357 39.4638 53.5029 39.5853C53.2701 39.7067 53.0751 39.8897 52.9391 40.1143C52.7462 40.2943 52.6027 40.5207 52.5223 40.7719C52.4419 41.0232 52.4273 41.2908 52.48 41.5493C52.6602 41.9525 52.974 42.2811 53.3683 42.4798C53.7627 42.6784 54.2135 42.735 54.6448 42.6399C54.4562 43.4599 54.2348 43.8371 53.177 43.6239C53.1034 43.6193 53.0306 43.6409 52.9714 43.6849C52.9123 43.7289 52.8707 43.7925 52.854 43.8643C52.8372 43.936 52.8465 44.0114 52.8801 44.077C52.9137 44.1426 52.9695 44.1942 53.0376 44.2225C54.0052 44.4521 54.9235 44.2225 55.2187 43.3041C56.1371 40.9999 55.2188 39.6141 54.2594 39.4255ZM53.956 41.8855C53.423 41.6969 53.2918 41.4755 53.2508 41.3115C53.2098 41.1475 53.3245 40.8523 53.5541 40.5817C53.7837 40.3111 53.9314 40.1225 54.161 40.2127C55.0302 40.5817 54.94 42.2545 53.956 41.9101V41.8855ZM58.1462 41.4263C56.7604 41.1803 55.9076 42.8203 56.5062 43.5911C56.7939 43.8707 57.1792 44.027 57.5804 44.027C57.9815 44.027 58.3668 43.8707 58.6546 43.5911C58.6546 43.7961 58.6545 44.0257 58.7037 44.1487C58.7056 44.2055 58.7285 44.2595 58.7678 44.3004C58.8072 44.3413 58.8603 44.3661 58.917 44.3701C58.9743 44.3702 59.0294 44.348 59.0707 44.3082C59.112 44.2685 59.1362 44.2142 59.1384 44.1569C59.1384 43.8453 59.286 42.4349 59.2532 42.3365C59.1724 42.0964 59.0258 41.8838 58.8301 41.7228C58.6343 41.5619 58.3974 41.4592 58.1462 41.4263ZM58.4742 42.4185C58.4742 42.6645 58.1708 43.0581 58.0232 43.1401C57.6132 43.3615 57.2032 43.3451 57.1048 43.1975C57.0064 43.0499 57.3261 42.1397 57.8263 42.1397C58.0149 42.1397 58.4332 42.2217 58.4742 42.4185ZM106.682 29.3805C105.493 29.1673 104.378 30.6843 104.845 31.9635C104.954 32.3327 105.19 32.6517 105.511 32.8646C105.832 33.0775 106.217 33.1707 106.6 33.1279C108.863 32.8901 108.396 29.7003 106.682 29.3805ZM106.6 32.2997C105.559 32.5457 105.19 31.2255 105.78 30.4629C105.86 30.3479 105.965 30.2527 106.087 30.1845C106.209 30.1162 106.345 30.0769 106.485 30.0693C106.681 30.1047 106.866 30.1853 107.026 30.3049C107.185 30.4245 107.315 30.5797 107.404 30.7581C107.501 31.0691 107.471 31.4062 107.321 31.6952C107.17 31.9843 106.911 32.2017 106.6 32.2997ZM111.34 29.6429C111.266 30.2333 110.79 32.4309 110.782 33.0049C110.793 33.0992 110.835 33.1871 110.902 33.2546C110.969 33.3221 111.056 33.3654 111.15 33.3777C111.245 33.3899 111.34 33.3704 111.422 33.3222C111.504 33.274 111.567 33.1998 111.602 33.1115C111.733 32.5375 111.815 30.2661 111.881 29.7003C111.946 29.3313 111.389 29.2903 111.34 29.6429ZM108.847 32.8409C108.796 32.8263 108.744 32.8227 108.692 32.8306C108.64 32.8384 108.591 32.8574 108.547 32.8863C108.503 32.9152 108.466 32.9532 108.439 32.9978C108.411 33.0423 108.394 33.0923 108.388 33.1443C108.314 33.8167 107.51 34.0217 107.764 34.3743C107.799 34.4258 107.852 34.4627 107.913 34.4778C107.973 34.4929 108.037 34.4853 108.092 34.4563C108.334 34.3469 108.55 34.1883 108.726 33.9906C108.903 33.7929 109.036 33.5605 109.117 33.3083C109.131 33.2599 109.135 33.2092 109.128 33.1593C109.122 33.1093 109.106 33.0612 109.081 33.0176C109.055 32.974 109.022 32.936 108.982 32.9056C108.941 32.8753 108.896 32.8533 108.847 32.8409ZM103.107 32.2423C103.107 32.0597 103.034 31.8845 102.905 31.7553C102.776 31.6261 102.601 31.5535 102.418 31.5535C102.235 31.5535 102.06 31.6261 101.931 31.7553C101.802 31.8845 101.729 32.0597 101.729 32.2423C101.729 32.425 101.802 32.6002 101.931 32.7294C102.06 32.8586 102.235 32.9311 102.418 32.9311C102.601 32.9311 102.776 32.8586 102.905 32.7294C103.034 32.6002 103.107 32.425 103.107 32.2423ZM83.2218 42.7957C83.2218 42.9784 83.2943 43.1536 83.4235 43.2828C83.5527 43.412 83.7279 43.4845 83.9106 43.4845C84.0932 43.4845 84.2684 43.412 84.3976 43.2828C84.5268 43.1536 84.5994 42.9784 84.5994 42.7957C84.5994 42.6131 84.5268 42.4379 84.3976 42.3087C84.2684 42.1795 84.0932 42.1069 83.9106 42.1069C83.7279 42.1069 83.5527 42.1795 83.4235 42.3087C83.2943 42.4379 83.2218 42.6131 83.2218 42.7957ZM41.82 63.9599C41.8305 63.8637 41.8206 63.7664 41.791 63.6742C41.7614 63.5821 41.7128 63.4972 41.6482 63.4251C41.5836 63.3531 41.5045 63.2954 41.4161 63.256C41.3277 63.2165 41.232 63.1961 41.1353 63.1961C41.0385 63.1961 40.9428 63.2165 40.8544 63.256C40.766 63.2954 40.687 63.3531 40.6224 63.4251C40.5577 63.4972 40.5091 63.5821 40.4795 63.6742C40.4499 63.7664 40.44 63.8637 40.4506 63.9599C40.44 64.0562 40.4499 64.1535 40.4795 64.2457C40.5091 64.3378 40.5577 64.4227 40.6224 64.4947C40.687 64.5668 40.766 64.6245 40.8544 64.6639C40.9428 64.7034 41.0385 64.7238 41.1353 64.7238C41.232 64.7238 41.3277 64.7034 41.4161 64.6639C41.5045 64.6245 41.5836 64.5668 41.6482 64.4947C41.7128 64.4227 41.7614 64.3378 41.791 64.2457C41.8206 64.1535 41.8305 64.0562 41.82 63.9599ZM46.658 63.3777C46.658 63.5604 46.7305 63.7356 46.8597 63.8648C46.9889 63.994 47.1641 64.0665 47.3468 64.0665C47.5294 64.0665 47.7046 63.994 47.8338 63.8648C47.963 63.7356 48.0356 63.5604 48.0356 63.3777C48.0356 63.1951 47.963 63.0199 47.8338 62.8907C47.7046 62.7615 47.5294 62.6889 47.3468 62.6889C47.1641 62.6889 46.9889 62.7615 46.8597 62.8907C46.7305 63.0199 46.658 63.1951 46.658 63.3777ZM78.597 61.7705C78.4262 61.7891 78.2683 61.8702 78.1536 61.998C78.0389 62.1259 77.9754 62.2917 77.9754 62.4634C77.9754 62.6352 78.0389 62.801 78.1536 62.9288C78.2683 63.0567 78.4262 63.1377 78.597 63.1563C78.7677 63.1377 78.9256 63.0567 79.0403 62.9288C79.155 62.801 79.2185 62.6352 79.2185 62.4634C79.2185 62.2917 79.155 62.1259 79.0403 61.998C78.9256 61.8702 78.7677 61.7891 78.597 61.7705ZM86.6084 43.1893C86.6994 43.1916 86.79 43.1753 86.8746 43.1415C86.9592 43.1077 87.036 43.057 87.1004 42.9926C87.1648 42.9282 87.2155 42.8514 87.2493 42.7668C87.2831 42.6822 87.2994 42.5916 87.2972 42.5005C87.2785 42.3298 87.1975 42.1719 87.0697 42.0572C86.9418 41.9425 86.776 41.879 86.6043 41.879C86.4325 41.879 86.2667 41.9425 86.1389 42.0572C86.011 42.1719 85.93 42.3298 85.9113 42.5005C85.909 42.5923 85.9256 42.6836 85.9599 42.7688C85.9942 42.8539 86.0456 42.9311 86.1109 42.9957C86.1762 43.0602 86.254 43.1107 86.3396 43.144C86.4251 43.1773 86.5166 43.1927 86.6084 43.1893ZM42.4104 24.7229C42.5581 24.7057 42.6943 24.6348 42.7932 24.5236C42.8921 24.4125 42.9467 24.269 42.9467 24.1202C42.9467 23.9715 42.8921 23.8279 42.7932 23.7168C42.6943 23.6057 42.5581 23.5348 42.4104 23.5175C42.2626 23.5348 42.1264 23.6057 42.0275 23.7168C41.9286 23.8279 41.874 23.9715 41.874 24.1202C41.874 24.269 41.9286 24.4125 42.0275 24.5236C42.1264 24.6348 42.2626 24.7057 42.4104 24.7229ZM45.4362 24.7229C45.5839 24.7057 45.7201 24.6348 45.819 24.5236C45.9179 24.4125 45.9725 24.269 45.9725 24.1202C45.9725 23.9715 45.9179 23.8279 45.819 23.7168C45.7201 23.6057 45.5839 23.5348 45.4362 23.5175C45.2884 23.5348 45.1522 23.6057 45.0533 23.7168C44.9544 23.8279 44.8998 23.9715 44.8998 24.1202C44.8998 24.269 44.9544 24.4125 45.0533 24.5236C45.1522 24.6348 45.2884 24.7057 45.4362 24.7229ZM48.708 24.7147C48.8557 24.6975 48.9919 24.6266 49.0908 24.5154C49.1897 24.4043 49.2443 24.2608 49.2443 24.112C49.2443 23.9633 49.1897 23.8197 49.0908 23.7086C48.9919 23.5975 48.8557 23.5266 48.708 23.5093C48.5602 23.5266 48.424 23.5975 48.3251 23.7086C48.2262 23.8197 48.1716 23.9633 48.1716 24.112C48.1716 24.2608 48.2262 24.4043 48.3251 24.5154C48.424 24.6266 48.5602 24.6975 48.708 24.7147ZM45.6986 58.4249C45.72 58.3815 45.7297 58.3332 45.7268 58.2849C45.7239 58.2365 45.7084 58.1898 45.6819 58.1492C45.6554 58.1087 45.6188 58.0757 45.5757 58.0536C45.5327 58.0315 45.4845 58.021 45.4362 58.0231C45.223 58.0231 45.182 58.2445 45.018 58.5643C43.8782 60.8275 42.3448 63.8943 42.23 64.3043C42.1994 64.3911 42.2032 64.4863 42.2405 64.5704C42.2778 64.6545 42.3458 64.7212 42.4307 64.7568C42.5155 64.7924 42.6107 64.7942 42.6969 64.762C42.783 64.7297 42.8536 64.6657 42.8942 64.5831C43.1812 64.1321 45.4116 58.9743 45.6986 58.4249ZM48.0192 57.6705C47.9947 57.6279 47.9595 57.5926 47.917 57.5679C47.8746 57.5433 47.8263 57.5304 47.7773 57.5304C47.7282 57.5304 47.6799 57.5433 47.6375 57.5679C47.595 57.5926 47.5598 57.6279 47.5354 57.6705C46.1824 60.4831 44.116 64.4929 44.034 64.8045C44.0219 64.8624 44.0227 64.9221 44.0364 64.9796C44.05 65.037 44.0762 65.0908 44.113 65.137C44.1498 65.1832 44.1963 65.2207 44.2493 65.2468C44.3022 65.273 44.3603 65.2872 44.4194 65.2883C44.7392 65.2883 44.8458 65.1817 47.6338 58.8431C48.0274 57.9821 48.1422 57.8591 48.0192 57.6705ZM72.8242 64.5421C72.0241 63.3813 71.5681 62.0181 71.5086 60.6095C71.4491 59.2009 71.7886 57.8041 72.488 56.5799C72.5271 56.5212 72.5413 56.4494 72.5275 56.3802C72.5136 56.311 72.4729 56.2501 72.4142 56.2109C72.3554 56.1718 72.2836 56.1576 72.2144 56.1714C72.1452 56.1853 72.0843 56.226 72.0452 56.2847C71.0954 57.5268 70.6149 59.0644 70.6884 60.6262C70.762 62.188 71.3848 63.6736 72.447 64.8209C72.4893 64.8516 72.5402 64.8681 72.5925 64.8678C72.6448 64.8676 72.6956 64.8507 72.7376 64.8197C72.7797 64.7886 72.8107 64.7449 72.8263 64.695C72.8418 64.6451 72.8411 64.5916 72.8242 64.5421Z" fill="#534B52"/>
<path d="M79.6383 55.7107C79.0643 55.9321 80.2779 56.6127 80.0893 60.5241C79.9253 63.8041 78.7035 64.8455 78.9003 65.1735C78.9214 65.2039 78.9496 65.2288 78.9824 65.246C79.0153 65.2631 79.0518 65.2721 79.0889 65.2721C79.1259 65.2721 79.1624 65.2631 79.1953 65.246C79.2281 65.2288 79.2563 65.2039 79.2775 65.1735C80.1521 63.7972 80.6747 62.2268 80.7991 60.6009C80.9236 58.975 80.646 57.3434 79.9909 55.8501C79.9621 55.7853 79.909 55.7343 79.8431 55.7083C79.7771 55.6822 79.7036 55.6831 79.6383 55.7107ZM73.0455 60.3683C71.7171 61.3195 72.8405 62.8283 74.1935 62.4511V64.6733C74.1935 65.0095 73.8491 65.1817 73.6441 64.8947C73.6047 64.8416 73.5467 64.8053 73.4817 64.7931C73.4167 64.781 73.3495 64.7938 73.2936 64.829C73.2376 64.8642 73.197 64.9193 73.1799 64.9831C73.1628 65.047 73.1704 65.115 73.2013 65.1735C73.2991 65.3341 73.4456 65.4595 73.6195 65.5313C73.7934 65.6031 73.9856 65.6177 74.1684 65.5729C74.3511 65.5282 74.5148 65.4264 74.6358 65.2823C74.7568 65.1382 74.8288 64.9594 74.8413 64.7716C74.8413 64.5092 75.0955 60.9177 74.7593 60.4831C74.655 60.3619 74.5276 60.2628 74.3846 60.1913C74.2416 60.1199 74.0859 60.0776 73.9264 60.0669C73.7669 60.0562 73.6069 60.0773 73.4557 60.1291C73.3044 60.1808 73.165 60.2621 73.0455 60.3683ZM74.0049 60.8849C74.0937 60.9758 74.1493 61.0941 74.1627 61.2206C74.1761 61.347 74.1465 61.4743 74.0787 61.5819C73.8983 61.7787 73.2587 61.7131 73.1685 61.3851C73.0783 61.0571 73.7097 60.6799 74.0049 60.8849ZM76.4977 60.2289C76.2155 60.2852 75.9595 60.4322 75.7686 60.6474C75.5777 60.8627 75.4623 61.1344 75.44 61.4213C75.4177 61.7081 75.4898 61.9944 75.6452 62.2365C75.8006 62.4787 76.0308 62.6634 76.3009 62.7627C76.5242 62.8463 76.7686 62.8555 76.9976 62.789C77.2266 62.7225 77.428 62.5839 77.5719 62.3937C77.6012 62.3421 77.6127 62.2824 77.6048 62.2237C77.5969 62.1649 77.5699 62.1104 77.528 62.0685C77.4861 62.0266 77.4316 61.9996 77.3728 61.9917C77.3141 61.9838 77.2544 61.9954 77.2029 62.0247C76.9815 62.1559 76.2025 62.1559 76.1451 61.5163C76.1317 61.3894 76.1575 61.2615 76.2192 61.1498C76.2808 61.0382 76.3752 60.9481 76.4896 60.8918C76.6041 60.8354 76.733 60.8156 76.8591 60.8349C76.9852 60.8542 77.1023 60.9117 77.1947 60.9997C77.2523 61.054 77.3292 61.0833 77.4084 61.081C77.4876 61.0787 77.5626 61.045 77.617 60.9874C77.6713 60.9297 77.7006 60.8529 77.6983 60.7737C77.696 60.6945 77.6623 60.6194 77.6047 60.5651C77.4607 60.4243 77.2849 60.3203 77.0922 60.2617C76.8996 60.2032 76.6956 60.1919 76.4977 60.2289ZM37.4329 24.9279C37.514 24.9543 37.6014 24.9543 37.6825 24.9277C37.7636 24.9012 37.8341 24.8496 37.8839 24.7803C38.0725 24.5261 38.6137 22.1973 38.7777 21.6397C38.7994 21.569 38.7922 21.4926 38.7576 21.4272C38.723 21.3618 38.6638 21.3129 38.5932 21.2912C38.5225 21.2694 38.4461 21.2766 38.3807 21.3112C38.3153 21.3458 38.2664 21.405 38.2447 21.4757C37.4575 23.7799 36.8097 24.7311 37.4329 24.9279ZM61.5901 100.483C60.9177 101.244 60.2002 101.964 59.4417 102.639C59.3998 102.68 59.3665 102.73 59.3438 102.784C59.3211 102.838 59.3094 102.896 59.3094 102.955C59.3094 103.014 59.3211 103.072 59.3438 103.126C59.3665 103.18 59.3998 103.229 59.4417 103.271C60.0731 103.836 60.7373 104.353 61.3441 104.911C61.3886 104.945 61.4434 104.964 61.4999 104.964C61.5563 104.964 61.6111 104.945 61.6557 104.911C61.691 104.868 61.7103 104.814 61.7103 104.759C61.7103 104.704 61.691 104.65 61.6557 104.607C61.2211 104.041 60.7865 103.484 60.3273 102.967C60.9598 102.31 61.5409 101.606 62.0657 100.86C62.3199 100.54 61.8197 100.187 61.5901 100.483ZM89.3799 103.508C89.4783 103.508 89.3799 103.508 90.4377 102.811C92.3975 101.434 92.5943 101.344 92.5369 100.95C92.4631 100.376 91.7169 100.286 89.7079 99.31C89.6317 99.2676 89.5419 99.2572 89.4581 99.281C89.3743 99.3049 89.3034 99.361 89.261 99.4371C89.2186 99.5133 89.2081 99.6031 89.232 99.6869C89.2558 99.7707 89.3119 99.8416 89.3881 99.884C89.7653 100.097 90.9543 100.843 91.4135 101.122C90.2245 102.237 89.2159 103.164 89.2159 103.164C89.1943 103.196 89.1815 103.233 89.1786 103.271C89.1757 103.31 89.1829 103.348 89.1995 103.383C89.216 103.418 89.2414 103.448 89.273 103.47C89.3047 103.492 89.3415 103.505 89.3799 103.508ZM83.4595 102.106C84.5583 102.106 85.5997 101.926 86.6575 101.877C86.7336 101.877 86.8066 101.846 86.8604 101.793C86.9142 101.739 86.9445 101.666 86.9445 101.59C86.9445 101.514 86.9142 101.441 86.8604 101.387C86.8066 101.333 86.7336 101.303 86.6575 101.303C85.5833 101.303 84.5583 101.13 83.4595 101.204C83.3398 101.204 83.2251 101.252 83.1406 101.336C83.056 101.421 83.0085 101.536 83.0085 101.655C83.0085 101.775 83.056 101.89 83.1406 101.974C83.2251 102.059 83.3398 102.106 83.4595 102.106ZM77.3669 102.336C77.8917 102.336 80.1549 102.098 80.4009 102.082C80.4748 102.082 80.5457 102.052 80.598 102C80.6503 101.948 80.6797 101.877 80.6797 101.803C80.6797 101.729 80.6503 101.658 80.598 101.606C80.5457 101.553 80.4748 101.524 80.4009 101.524C80.1549 101.524 77.8917 101.376 77.3669 101.442C77.2587 101.457 77.1596 101.51 77.0879 101.592C77.0161 101.674 76.9765 101.78 76.9765 101.889C76.9765 101.998 77.0161 102.103 77.0879 102.186C77.1596 102.268 77.2587 102.321 77.3669 102.336ZM69.9377 101.811C69.8806 101.812 69.8243 101.824 69.772 101.847C69.7196 101.87 69.6723 101.903 69.6327 101.944C69.5931 101.985 69.562 102.034 69.5412 102.087C69.5203 102.14 69.5102 102.197 69.5113 102.254C69.5113 102.738 70.0115 102.713 70.3313 102.713C71.2727 102.67 72.2114 102.58 73.1439 102.442C73.2168 102.43 73.2831 102.393 73.331 102.337C73.3788 102.28 73.4051 102.209 73.4051 102.135C73.4051 102.061 73.3788 101.99 73.331 101.933C73.2831 101.877 73.2168 101.839 73.1439 101.827C72.5945 101.868 70.4625 101.795 69.9377 101.811ZM66.6331 102.262C66.0263 102.262 63.7139 102.155 63.1235 102.262C63.0147 102.262 62.9104 102.305 62.8336 102.382C62.7567 102.459 62.7135 102.563 62.7135 102.672C62.7135 102.781 62.7567 102.885 62.8336 102.962C62.9104 103.039 63.0147 103.082 63.1235 103.082C63.7385 103.164 66.0345 102.934 66.6331 102.91C66.719 102.91 66.8014 102.876 66.8621 102.815C66.9228 102.754 66.957 102.672 66.957 102.586C66.957 102.5 66.9228 102.418 66.8621 102.357C66.8014 102.296 66.719 102.262 66.6331 102.262ZM34.9155 12.5459C34.7253 12.3087 34.4781 12.1238 34.197 12.0082C33.9158 11.8927 33.61 11.8504 33.3081 11.8854C33.0061 11.9203 32.718 12.0313 32.4707 12.208C32.2234 12.3846 32.0249 12.6212 31.8939 12.8954C31.763 13.1697 31.7037 13.4727 31.7218 13.7761C31.7399 14.0795 31.8347 14.3734 31.9973 14.6302C32.16 14.8869 32.3851 15.0982 32.6517 15.2442C32.9183 15.3903 33.2175 15.4662 33.5215 15.4651C33.8621 15.4704 34.1971 15.3778 34.4866 15.1983C34.7762 15.0189 35.0081 14.7601 35.1549 14.4527C35.3017 14.1452 35.3572 13.8022 35.3147 13.4641C35.2723 13.1261 35.1337 12.8074 34.9155 12.5459ZM34.4645 14.1859C34.3611 14.3787 34.2001 14.5344 34.0039 14.6312C33.8078 14.728 33.5863 14.7611 33.3704 14.7259C33.1544 14.6906 32.9549 14.5888 32.7997 14.4347C32.6445 14.2805 32.5414 14.0817 32.5047 13.8661C32.4653 13.7114 32.4612 13.5498 32.4926 13.3933C32.524 13.2368 32.5902 13.0894 32.6862 12.9619C32.7822 12.8344 32.9057 12.7301 33.0474 12.6566C33.1891 12.5832 33.3455 12.5426 33.5051 12.5377C33.691 12.5534 33.8704 12.6142 34.0276 12.7148C34.1848 12.8154 34.315 12.9529 34.4071 13.1152C34.4992 13.2776 34.5503 13.4599 34.556 13.6465C34.5617 13.8331 34.5218 14.0182 34.4399 14.1859H34.4645ZM42.6399 12.7509C42.4035 12.4419 42.0724 12.2189 41.6973 12.116C41.3222 12.0132 40.9237 12.036 40.5628 12.1811C40.2019 12.3262 39.8985 12.5856 39.699 12.9195C39.4996 13.2534 39.415 13.6435 39.4583 14.0301C39.4949 14.4174 39.654 14.7829 39.9126 15.0735C40.1712 15.3641 40.5158 15.5647 40.8962 15.6461C41.2766 15.7275 41.6731 15.6854 42.0279 15.5261C42.3828 15.3667 42.6776 15.0983 42.8695 14.7599C43.0131 14.4348 43.0675 14.0773 43.0271 13.7242C42.9868 13.3711 42.8531 13.0352 42.6399 12.7509ZM40.6719 12.9231C40.8767 12.7883 41.1228 12.7308 41.3662 12.7609C41.6096 12.7909 41.8343 12.9065 42.0003 13.0871C42.1531 13.267 42.2512 13.4869 42.2832 13.7208C42.3152 13.9547 42.2796 14.1929 42.1807 14.4073C42.076 14.5914 41.9184 14.7399 41.7283 14.8335C41.5382 14.927 41.3245 14.9614 41.1147 14.9321C40.8972 14.8952 40.6955 14.7947 40.5351 14.6432C40.3747 14.4917 40.2629 14.2961 40.2137 14.081C40.1646 13.8659 40.1803 13.6411 40.2589 13.435C40.3376 13.2289 40.4756 13.0507 40.6555 12.9231H40.6719ZM50.3397 12.9641C50.1497 12.7272 49.9029 12.5424 49.6221 12.4268C49.3414 12.3113 49.0359 12.2688 48.7343 12.3033C48.4327 12.3379 48.1447 12.4483 47.8974 12.6244C47.65 12.8004 47.4513 13.0363 47.3199 13.3099C47.1884 13.5836 47.1285 13.8861 47.1457 14.1892C47.1629 14.4923 47.2567 14.7861 47.4183 15.0432C47.5798 15.3002 47.8039 15.5121 48.0696 15.659C48.3353 15.8059 48.6339 15.8831 48.9375 15.8833C49.2788 15.8902 49.6149 15.7988 49.9057 15.6199C50.1965 15.4411 50.4297 15.1824 50.5775 14.8747C50.7253 14.5669 50.7815 14.2232 50.7393 13.8844C50.6971 13.5456 50.5584 13.2262 50.3397 12.9641ZM49.8805 14.6041C49.7832 14.7602 49.6474 14.8887 49.4862 14.9773C49.325 15.0658 49.1437 15.1115 48.9597 15.11C48.7758 15.1084 48.5953 15.0596 48.4356 14.9683C48.276 14.877 48.1424 14.7462 48.0477 14.5885C47.9531 14.4308 47.9006 14.2514 47.8951 14.0675C47.8897 13.8836 47.9316 13.7014 48.0168 13.5384C48.102 13.3753 48.2276 13.2369 48.3816 13.1363C48.5357 13.0358 48.7129 12.9765 48.8965 12.9641C49.0864 12.9707 49.2717 13.0247 49.4355 13.1213C49.5992 13.2178 49.7362 13.3538 49.834 13.5167C49.9318 13.6797 49.9873 13.8646 49.9954 14.0545C50.0035 14.2444 49.964 14.4333 49.8805 14.6041Z" fill="#534B52"/>
<path d="M120.27 26.6252C120.503 26.1476 120.611 25.618 120.582 25.0869C120.554 24.5558 120.39 24.0409 120.106 23.5912C119.441 22.6072 118.105 22.64 117.031 22.6646C113.71 22.7466 35.7521 20.3604 35.6701 20.3522C35.1947 20.2375 34.6934 20.3079 34.2679 20.549C32.9641 21.5002 33.0051 24.8868 34.4729 25.7396C34.9069 25.9352 35.3883 26.0008 35.8587 25.9282L117.728 28.1176C118.245 28.1159 118.753 27.9769 119.2 27.7147C119.647 27.4525 120.016 27.0766 120.27 26.6252ZM40.3031 21.3936C39.8568 22.4341 39.4869 23.5057 39.1961 24.5998C39.1939 24.6486 39.2016 24.6973 39.2187 24.7429C39.2359 24.7886 39.2621 24.8304 39.2958 24.8656C39.3295 24.9009 39.3701 24.9289 39.415 24.9481C39.4598 24.9672 39.5081 24.9771 39.5569 24.977C39.9259 24.977 39.9915 24.6408 40.5491 22.6236C40.8525 21.492 40.9345 21.4592 40.7869 21.3034C52.5375 21.6724 117.687 23.4846 117.818 23.4928C118.826 23.4928 119.376 23.8044 119.597 24.3866C119.764 24.7793 119.811 25.2129 119.73 25.632C119.65 26.0512 119.447 26.4369 119.146 26.74C118.784 26.9941 118.375 27.1741 117.943 27.2698C117.511 27.3654 117.064 27.3749 116.629 27.2976C111.848 27.1336 35.0961 25.1738 35.0141 25.1574C33.9399 24.895 33.8497 22.3612 34.5057 21.369C34.7435 21.0164 35.1043 21.0328 35.6701 21.1066C41.0001 21.369 40.3769 21.1804 40.3031 21.3936ZM67.2975 70.1426C67.2975 69.3226 67.9863 69.6834 37.7775 70.4952C37.6042 70.4829 37.4304 70.5122 37.2706 70.5807C37.1108 70.6491 36.9698 70.7548 36.8591 70.8888C36.5475 71.3562 37.0887 96.481 37.1051 96.7188C37.1094 96.8225 37.1536 96.9206 37.2285 96.9924C37.3034 97.0642 37.4031 97.1043 37.5069 97.1042C37.5069 97.1042 40.7295 96.9894 43.5503 96.9074C68.3061 96.194 67.9863 95.8414 67.9617 95.5052C67.8961 94.8738 67.3057 70.5772 67.2975 70.1426ZM37.5397 71.4546C37.5397 71.3972 37.6955 71.348 37.7775 71.3398C38.8681 71.3398 65.5099 70.5198 66.4775 70.5198C66.5513 72.9798 67.2401 93.9062 67.2975 95.1772C63.0827 95.4478 40.9837 96.2268 37.9169 96.2924C37.4331 89.593 37.4905 71.9466 37.5397 71.4546Z" fill="#20232e"/>
<path d="M38.9419 94.1687C39.5815 93.7013 51.5945 83.5989 51.9963 83.2709C55.1697 85.8047 64.0913 92.9305 65.9937 94.4721C66.2889 94.7099 66.6661 94.2835 66.3791 94.0375C62.9843 91.2167 54.3579 84.1975 52.6113 82.7543C53.4313 82.1147 63.7387 73.4883 65.0507 72.4305C65.3295 72.1927 64.9687 71.7827 64.6817 72.0041C61.2951 74.7265 53.3001 81.1799 51.9717 82.2541C49.4297 80.2451 41.2215 73.9229 39.2453 72.4961C39.1904 72.4642 39.1259 72.4533 39.0636 72.4653C39.0013 72.4773 38.9455 72.5115 38.9065 72.5616C38.8674 72.6116 38.8479 72.674 38.8514 72.7374C38.8548 72.8007 38.8812 72.8607 38.9255 72.9061C41.7381 75.2021 51.1435 82.5985 51.3567 82.7461C48.6671 84.9847 39.4011 92.7829 38.5319 93.6603C38.4644 93.7147 38.4214 93.7936 38.4122 93.8797C38.4029 93.9658 38.4283 94.0521 38.4827 94.1195C38.537 94.1869 38.616 94.23 38.7021 94.2392C38.7882 94.2484 38.8744 94.2231 38.9419 94.1687ZM97.7031 91.2905C94.9889 89.0601 89.3473 84.1565 88.2731 83.2217C90.6757 81.1061 98.1131 74.2017 99.6055 72.8405C99.6609 72.7883 99.6934 72.7162 99.6957 72.6401C99.698 72.564 99.67 72.4901 99.6178 72.4346C99.5656 72.3791 99.4935 72.3467 99.4174 72.3444C99.3412 72.3421 99.2673 72.3701 99.2119 72.4223C98.1049 73.4473 88.0107 82.4017 87.6827 82.6969C86.3543 81.5407 75.8993 72.2993 75.4893 71.9549C75.438 71.9152 75.3738 71.8958 75.3091 71.9006C75.2444 71.9054 75.1837 71.934 75.1389 71.9809C75.094 72.0278 75.0681 72.0897 75.0662 72.1545C75.0643 72.2194 75.0865 72.2826 75.1285 72.3321C75.8091 73.0291 85.2309 81.6965 87.0267 83.2791C86.0673 84.0991 76.5635 92.5041 75.5467 93.4061C75.5087 93.436 75.4816 93.4775 75.4695 93.5243C75.4573 93.571 75.4608 93.6205 75.4794 93.6651C75.498 93.7097 75.5306 93.747 75.5724 93.7713C75.6141 93.7956 75.6627 93.8056 75.7107 93.7997C76.0961 93.7997 86.8381 84.4517 87.5925 83.7957C89.3883 85.3127 95.7023 90.4541 97.2931 91.7251C97.6211 91.9547 97.9983 91.5365 97.7031 91.2905ZM16.8429 131.364C16.8429 131.364 39.1715 130.085 39.5733 130.052C39.6373 130.047 39.6993 130.028 39.7544 129.995C39.8094 129.962 39.856 129.916 39.8903 129.862C39.9246 129.808 39.9457 129.746 39.9519 129.682C39.958 129.619 39.9491 129.554 39.9259 129.494C39.9669 124.082 40.5327 113.914 40.1883 113.39C40.0767 113.253 39.9298 113.149 39.7636 113.09C39.5974 113.031 39.4182 113.018 39.2453 113.053L16.9659 114.152C16.8614 114.156 16.7625 114.2 16.6893 114.275C16.6161 114.35 16.5743 114.449 16.5723 114.554C16.4329 117.777 16.1459 130.724 16.2197 130.954C16.2577 131.085 16.3413 131.199 16.4556 131.274C16.5698 131.349 16.7072 131.381 16.8429 131.364ZM39.4995 114.046C39.4995 114.718 39.4585 117.596 39.1879 129.248C36.9329 129.338 17.5071 130.495 17.0479 130.519C17.0479 128.789 17.3267 116.891 17.4005 114.939L39.2945 113.841C39.3482 113.843 39.3992 113.865 39.4372 113.903C39.4752 113.941 39.4974 113.992 39.4995 114.046ZM47.0763 129.101C47.1829 129.486 47.5519 129.502 47.9373 129.47C71.8157 127.616 70.5857 128.264 70.7497 127.961C70.8153 127.83 70.6923 128.502 70.9793 119.925C70.9793 118.867 71.2991 111.914 71.0367 111.512C70.9263 111.374 70.7795 111.269 70.613 111.209C70.4464 111.15 70.2666 111.138 70.0937 111.176C69.9789 111.176 48.9541 112.209 47.8225 112.274C47.7166 112.276 47.6156 112.319 47.5407 112.394C47.4658 112.469 47.4228 112.57 47.4207 112.676C47.2895 115.702 46.9943 128.822 47.0763 129.101ZM47.8963 128.642C47.8963 126.862 48.1833 114.939 48.2489 113.062L70.2577 111.963C70.4463 111.963 70.4463 110.757 70.0609 127.354C67.7813 127.452 48.3801 128.609 47.8717 128.642H47.8963ZM75.5549 127.1C75.6697 127.477 76.0305 127.494 76.4241 127.461C100.302 125.599 99.0725 126.255 99.2365 125.952C99.3021 125.829 99.1791 126.452 99.4661 117.924C99.4661 116.842 99.7859 109.921 99.5235 109.503C99.4131 109.365 99.2663 109.26 99.0998 109.201C98.9332 109.141 98.7534 109.129 98.5805 109.167L76.3093 110.265C76.2033 110.267 76.1024 110.31 76.0275 110.385C75.9526 110.46 75.9096 110.561 75.9075 110.667C75.7681 113.849 75.4811 126.796 75.5549 127.1ZM76.7111 111.069L98.7199 109.97C98.9085 109.97 98.9003 108.781 98.5231 125.362C96.2681 125.444 76.8341 126.6 76.3831 126.632C76.3585 126.518 76.6373 113.045 76.7111 111.036V111.069Z" fill="#e7dadf"/>
<path d="M38.3268 114.439C35.8668 116.35 29.4462 120.917 28.536 121.581C27.7898 121.13 19.3848 116.095 18.4746 115.53C18.4159 115.492 18.3444 115.478 18.276 115.493C18.2076 115.508 18.1478 115.549 18.1097 115.608C18.0716 115.666 18.0585 115.738 18.0731 115.806C18.0877 115.875 18.1289 115.934 18.1876 115.972C19.4094 116.792 26.2564 121.138 27.8062 122.106C27.3142 122.459 18.8928 128.518 18.3926 128.928C18.3495 128.963 18.3183 129.01 18.3035 129.063C18.2887 129.116 18.2909 129.173 18.31 129.224C18.3291 129.276 18.3639 129.32 18.4097 129.351C18.4554 129.382 18.5097 129.398 18.5648 129.396C18.8436 129.396 28.4048 122.762 28.6262 122.598C30.5532 123.721 37.4658 127.567 38.2284 127.969C38.2774 128 38.3361 128.013 38.3935 128.004C38.4509 127.995 38.503 127.965 38.54 127.92C38.5641 127.864 38.5692 127.801 38.5544 127.742C38.5396 127.683 38.5057 127.63 38.458 127.592C35.4076 125.788 32.3244 123.918 29.3396 122.106C31.119 120.786 38.6548 114.906 38.6548 114.906C38.7168 114.863 38.7589 114.797 38.772 114.722C38.7851 114.647 38.768 114.571 38.7245 114.509C38.681 114.447 38.6147 114.405 38.5401 114.392C38.4655 114.379 38.3888 114.396 38.3268 114.439ZM69.5934 112.34C68.9538 112.791 59.1056 119.63 58.3594 120.163C56.58 118.941 50.7908 114.906 49.487 113.898C49.2082 113.685 48.872 114.119 49.1426 114.332C51.3484 116.071 56.3996 119.818 57.6214 120.696C55.7928 122.057 49.6428 126.304 48.4702 127.469C48.4409 127.497 48.4207 127.533 48.4121 127.573C48.4035 127.613 48.4069 127.654 48.4218 127.692C48.4367 127.73 48.4626 127.762 48.496 127.785C48.5294 127.808 48.569 127.821 48.6096 127.821C48.7244 127.821 49.323 127.485 58.3102 121.171C60.3192 122.5 66.8136 126.37 68.2732 127.149C68.3182 127.168 68.3686 127.17 68.4151 127.155C68.4617 127.141 68.5014 127.11 68.5271 127.068C68.5528 127.027 68.5629 126.977 68.5554 126.929C68.5479 126.881 68.5235 126.837 68.4864 126.805C67.2728 125.985 59.655 121.065 59.0564 120.638C60.5324 119.597 69.29 113.168 69.8804 112.742C69.9337 112.704 69.9697 112.646 69.9804 112.581C69.9912 112.517 69.9759 112.451 69.9378 112.397C69.8997 112.344 69.8421 112.308 69.7775 112.297C69.7129 112.286 69.6467 112.302 69.5934 112.34ZM88.0106 117.801C90.0442 119.162 96.2106 123.467 97.539 124.484C97.5665 124.507 97.5982 124.525 97.6324 124.536C97.6667 124.547 97.7027 124.551 97.7385 124.548C97.7743 124.544 97.8091 124.534 97.841 124.518C97.8729 124.501 97.9012 124.479 97.9244 124.451C97.9475 124.424 97.9651 124.392 97.9759 124.358C97.9868 124.324 97.9909 124.288 97.9878 124.252C97.9848 124.216 97.9747 124.181 97.9582 124.149C97.9417 124.117 97.9191 124.089 97.8916 124.066C96.8338 123.246 90.3148 118.375 88.7814 117.293C89.6014 116.76 97.1536 111.553 98.0556 110.954C98.0868 110.935 98.1139 110.909 98.1354 110.879C98.1568 110.85 98.1721 110.816 98.1805 110.78C98.1889 110.744 98.1901 110.707 98.1842 110.671C98.1782 110.635 98.1652 110.6 98.1458 110.569C98.1264 110.537 98.1011 110.51 98.0712 110.489C98.0414 110.467 98.0076 110.452 97.9718 110.444C97.936 110.435 97.8989 110.434 97.8626 110.44C97.8264 110.446 97.7916 110.459 97.7604 110.478C97.0224 110.962 88.4124 116.415 87.9204 116.735C86.223 115.669 80.5404 112.34 79.0152 111.635C78.9565 111.606 78.8889 111.603 78.8275 111.624C78.766 111.646 78.7155 111.691 78.6872 111.749C78.5068 112.094 78.5478 111.848 87.1496 117.243C84.747 118.883 77.3096 124.156 76.5552 124.746C76.5141 124.789 76.4872 124.844 76.4784 124.903C76.4696 124.961 76.4792 125.021 76.506 125.074C76.5411 125.126 76.5945 125.162 76.6554 125.176C76.7163 125.19 76.7802 125.18 76.834 125.148C77.7196 124.64 88.0106 117.801 88.0106 117.801Z" fill="#e7dadf"/>
<path d="M159.9 141.573C158.998 141.368 154.16 140.712 128.847 136.981C128.312 136.229 127.897 135.399 127.617 134.521C127.51 132.061 126.879 124.254 126.674 122.729C126.264 119.695 125.435 116.661 125.501 113.537C126.378 113.349 127.248 113.143 128.084 112.914C128.155 112.891 128.218 112.846 128.262 112.786C128.306 112.726 128.33 112.653 128.33 112.578C128.341 109.512 128.116 106.45 127.658 103.418C129.035 101.893 128.986 99.0231 128.937 96.6861C128.937 94.5541 129.011 93.0617 129.002 78.6461C131.52 76.6699 130.946 72.2829 130.642 70.0525C131.372 69.5441 131.405 69.5441 131.413 69.4211C131.35 68.6215 131.185 67.8334 130.921 67.0759C130.747 66.6784 130.493 66.321 130.175 66.0263C130.454 65.6163 130.503 65.5835 130.446 65.4523C129.978 64.4929 129.626 63.8123 129.166 63.0825V55.8911C130.638 56.0531 132.121 55.7027 133.365 54.8989C133.41 54.875 133.444 54.8352 133.462 54.7873C133.479 54.7393 133.478 54.6866 133.458 54.6395C133.439 54.5924 133.402 54.5543 133.356 54.5325C133.31 54.5107 133.258 54.5068 133.209 54.5217C132.094 54.7923 131.29 54.6611 130.815 54.1199C129.642 52.8079 130.593 49.3475 131.061 48.1175C132.159 45.0507 133.521 44.9441 133.849 42.7383C134.035 41.1487 133.682 39.5425 132.846 38.1774C132.011 36.8124 130.741 35.7676 129.24 35.2107C129.24 35.1451 129.462 22.7057 129.47 22.3203C129.552 18.7861 129.658 13.9481 125.706 12.3491C124.814 12.0507 123.872 11.9309 122.934 11.9965C122.762 11.9965 36.121 9.2249 35.5142 9.1839C33.8772 8.99577 32.2224 9.02887 30.5942 9.2823C26.4942 10.1679 26.4368 14.2023 26.4122 16.8263C26.4122 17.0477 26.4614 39.9421 26.4942 61.7295C23.7308 61.6639 12.7182 61.6475 10.414 61.7295C8.47061 61.7295 6.77321 61.8689 5.69081 62.6971C5.16232 63.1149 4.73356 63.6452 4.4357 64.2494C4.13783 64.8537 3.97833 65.5167 3.96881 66.1903C3.96881 74.2181 4.78881 122.385 4.34601 138.424C4.28861 140.507 5.22341 142.147 6.80601 142.631C5.83021 143.951 6.80601 145.451 8.20001 146.075C18.9994 148.403 50.3316 155.095 52.808 155.095C54.079 155.095 117.883 148.887 156.038 145.206C158.235 145.206 160.408 144.082 160.138 142.048C160.039 141.556 160.039 141.606 159.9 141.573ZM125.78 122.18C126.288 126.206 126.452 130.298 126.756 134.349C125.911 134.671 124.977 134.671 124.132 134.349C121.672 129.683 117.777 123.352 118.392 117.85C118.58 116.079 118.654 115.3 117.645 113.824C118.523 113.767 119.417 113.685 120.351 113.537C120.524 113.537 120.589 113.537 121.171 110.339C122.344 113.947 122.344 114.193 122.631 114.127L124.747 113.677C124.64 116.555 125.386 119.367 125.78 122.18ZM101.68 141.762C102.844 143.024 106.059 141.187 107.51 140.244C107.542 140.225 107.568 140.197 107.584 140.164C107.6 140.13 107.606 140.093 107.6 140.056C107.575 139.885 107.585 139.711 107.63 139.545C107.675 139.378 107.754 139.223 107.863 139.088C107.884 139.056 107.912 139.029 107.945 139.008C107.977 138.986 108.013 138.972 108.051 138.965C108.183 138.965 108.437 139.203 108.56 139.654C108.683 140.105 109.864 139.834 110.2 139.654C110.339 139.572 110.347 139.588 110.2 137.194C113.939 137.891 121.311 139.162 123.976 139.654C124.058 140.007 124.14 140.351 124.23 140.679C115.21 141.499 52.2176 147.124 50.635 147.239C49.7084 147.026 30.7254 143.639 30.0612 143.524C47.3304 142.106 92.4386 138.416 104.394 137.391C102.803 139.785 101.45 140.097 101.393 140.376C101.322 140.612 101.312 140.863 101.362 141.105C101.412 141.347 101.521 141.572 101.68 141.762ZM100.286 107.822C95.612 107.978 35.0058 110.126 31.365 109.224C28.4294 108.855 27.0518 106.321 27.265 101.696C27.3142 99.2363 27.1092 27.3715 27.0682 17.8431C40.4014 18.4499 120.048 20.6721 128.674 20.7459C128.674 22.2629 128.535 29.7659 128.445 34.9401C125.706 34.2349 122.319 34.8499 122.811 37.5395C122.82 37.584 122.843 37.6243 122.877 37.6543C123.187 37.8965 123.446 38.1981 123.638 38.5414C123.83 38.8847 123.952 39.2628 123.996 39.6537C124.04 40.0446 124.006 40.4404 123.896 40.818C123.785 41.1955 123.601 41.5473 123.353 41.8527C123.156 42.0823 123.705 43.0827 123.443 46.5923C123.09 51.3073 125.509 54.7923 128.273 55.6533C128.273 56.7193 128.232 60.6881 128.232 61.6229C125.353 57.1375 123.836 56.3585 119.048 53.2507C118.802 53.0867 118.793 53.5213 119.679 50.1511C120.246 49.9692 120.765 49.6627 121.197 49.254C121.63 48.8454 121.966 48.3449 122.18 47.7895C122.361 45.8804 122.361 43.9586 122.18 42.0495C122.399 41.3194 122.45 40.5493 122.329 39.7967C122.208 39.0442 121.919 38.3286 121.483 37.7035C120.734 36.4383 119.607 35.4401 118.26 34.8499C115.645 33.7511 113.217 34.8499 111.069 35.7929C108.609 36.9491 108.757 37.6461 109.06 40.3193C109.064 40.5325 109.116 40.7419 109.215 40.9312C109.313 41.1204 109.454 41.2843 109.626 41.4099C109.052 43.3369 108.224 46.8875 108.847 48.7899C109.086 49.4723 109.459 50.0998 109.945 50.6351C110.431 51.1704 111.02 51.6025 111.676 51.9059C111.618 52.1519 111.495 52.6111 111.405 52.9555C111.003 52.8489 110.265 52.6685 109.831 52.5701C107.067 51.2827 104.558 49.8149 101.721 50.1101C101.502 50.1412 101.293 50.2257 101.114 50.3561C100.699 49.957 100.212 49.6398 99.6792 49.4213C99.2364 48.6013 91.8728 36.7933 91.7826 36.6539C91.4136 36.0717 91.102 35.5633 91.3726 34.9729C91.6432 34.3825 92.3648 33.3329 92.2828 32.4637L99.0068 32.4227C99.2243 32.4227 99.4329 32.3363 99.5866 32.1825C99.7404 32.0287 99.8268 31.8202 99.8268 31.6027V29.3395C99.8268 29.122 99.7404 28.9135 99.5866 28.7597C99.4329 28.6059 99.2243 28.5195 99.0068 28.5195H74.62C74.4025 28.5195 74.194 28.6059 74.0402 28.7597C73.8864 28.9135 73.8 29.122 73.8 29.3395V31.9799C73.8 32.1974 73.8864 32.4059 74.0402 32.5597C74.194 32.7135 74.4025 32.7999 74.62 32.7999L83.8778 32.7097C84.7792 34.2685 86.1235 35.5243 87.74 36.3177C88.0844 36.4981 88.0516 36.5227 88.7158 40.0405C89.7982 45.7067 90.9134 51.5697 94.4558 56.2519C94.3902 56.4159 94.341 56.5799 94.2836 56.7439C94.2667 56.7985 94.263 56.8564 94.2729 56.9127C94.2827 56.969 94.3058 57.0222 94.3402 57.0679C94.3747 57.1135 94.4195 57.1503 94.4709 57.1753C94.5224 57.2002 94.579 57.2126 94.6362 57.2113C94.9074 57.2036 95.177 57.2538 95.4273 57.3584C95.6775 57.463 95.9026 57.6197 96.0876 57.8181C95.9482 59.4171 96.2598 60.2781 98.154 61.6967C98.6296 62.0493 101.836 63.7959 102.68 64.2387C102.303 65.7311 101.983 67.2563 101.68 68.7897C93.0782 69.0767 74.2592 69.2489 73.8 69.6097C73.6631 69.7179 73.5534 69.8565 73.4793 70.0144C73.4053 70.1724 73.3691 70.3455 73.3736 70.5199C73.2424 73.7999 72.9636 92.5287 72.9882 93.3897C72.9882 95.0297 73.2588 96.0301 75.0054 95.8497C76.2764 95.8497 91.9876 95.4479 98.4328 95.2839C98.3344 96.3663 98.3016 96.3827 98.4328 96.4729C99.1701 97.0328 100.004 97.4525 100.893 97.7111C100.309 101.048 100.103 104.439 100.278 107.822H100.286ZM114.8 58.0559C112.84 58.2855 109.732 57.9739 109.175 56.1699C108.962 55.3499 109.741 53.8821 110.159 53.3737L111.586 53.7099C111.673 53.73 111.764 53.7155 111.84 53.6696C111.917 53.6238 111.972 53.55 111.996 53.4639C112.102 53.0047 112.233 52.5127 112.324 52.1519C112.643 52.2585 112.988 52.3897 113.062 52.0863C113.07 52.054 113.072 52.0203 113.068 51.9871C113.064 51.954 113.053 51.922 113.036 51.8931C113.019 51.8641 112.997 51.8388 112.97 51.8184C112.944 51.7981 112.914 51.7833 112.881 51.7747C110.421 51.0941 109.085 48.6751 109.601 45.8625C109.859 44.0084 110.226 42.1711 110.7 40.3603C111.414 41.1611 112.37 41.7066 113.422 41.9139C114.475 42.1211 115.566 41.9787 116.53 41.5083C116.326 43.0097 116.444 44.5374 116.877 45.9896C117.309 47.4417 118.047 48.785 119.039 49.9297C118.08 53.2097 118.047 53.2097 118.293 53.5705C118.539 53.9313 119.367 54.2757 120.31 54.9973C118.901 56.6462 116.945 57.7321 114.8 58.0559ZM114.8 59.5319C114.374 59.5319 114.8 58.7529 115.153 58.7529C115.505 58.7529 115.079 59.5073 114.8 59.5319ZM112.283 59.3269C112.283 59.7533 111.463 60.0731 111.167 59.8599C110.872 59.6467 111.323 59.1465 111.766 59.0399C111.871 59.012 111.984 59.0264 112.079 59.08C112.174 59.1336 112.244 59.2222 112.274 59.3269H112.283ZM109.527 58.5807C109.494 58.6101 109.454 58.631 109.41 58.6417C109.367 58.6524 109.322 58.6525 109.278 58.6421C109.235 58.6316 109.195 58.6109 109.161 58.5817C109.127 58.5525 109.101 58.5156 109.085 58.4741C108.994 58.0395 109.642 57.8017 109.773 57.9739C109.905 58.1461 109.806 58.3429 109.519 58.5807H109.527ZM121.688 71.1267C121.741 71.1486 121.786 71.1863 121.817 71.2348C121.848 71.2832 121.863 71.34 121.86 71.3973C121.845 71.4526 121.814 71.502 121.77 71.5386C121.726 71.5753 121.671 71.5975 121.614 71.6023C119.154 71.3809 117.309 69.7819 116.801 66.7397C116.788 66.6712 116.802 66.6003 116.842 66.5426C116.881 66.485 116.941 66.4452 117.01 66.4322C117.078 66.4192 117.149 66.4338 117.207 66.4731C117.265 66.5123 117.304 66.5728 117.317 66.6413C117.583 67.7079 118.127 68.685 118.893 69.4729C119.659 70.2609 120.621 70.8315 121.68 71.1267H121.688ZM89.544 32.6605C89.5932 32.8655 89.011 32.9393 88.5026 34.3415C88.4896 34.406 88.5006 34.473 88.5334 34.53C88.5663 34.587 88.6188 34.6301 88.6811 34.6512C88.7434 34.6723 88.8113 34.67 88.872 34.6447C88.9327 34.6194 88.9821 34.5728 89.011 34.5137C89.4456 33.3329 90.4624 33.5543 90.2656 32.5949C89.8802 30.7335 90.3394 29.7741 90.979 29.9627C91.102 29.9627 91.0364 31.6027 91.4382 32.0209C92.1516 32.8409 90.856 34.0709 90.6182 34.9811C90.5525 35.2779 90.5553 35.5857 90.6263 35.8812C90.6974 36.1768 90.8348 36.4522 91.0282 36.6867C91.184 36.9245 98.5394 48.8063 99.0314 49.5771C97.2984 51.2817 95.8455 53.2493 94.7264 55.4073C90.7576 49.8067 89.9786 42.7629 88.642 36.3341C88.4763 35.9862 88.1825 35.7159 87.822 35.5797C86.5492 34.9196 85.4784 33.928 84.7224 32.7097L89.544 32.6605ZM99.0806 50.5447C99.4496 50.1347 99.4906 50.0527 99.63 50.0855C99.9657 50.2546 100.28 50.4639 100.565 50.7087C99.5972 51.4713 96.9486 54.5463 96.2516 56.8997C95.9022 56.6624 95.4992 56.5158 95.079 56.4733C95.8334 54.1937 97.4898 52.3405 99.0806 50.5447ZM98.5066 94.5623C91.8646 94.6771 75.153 95.1445 74.1034 94.9887C73.8 94.7181 73.8164 94.1195 73.8246 93.6357C73.8246 93.5455 74.0542 71.8073 74.1772 70.4133C74.1772 70.1345 72.1436 70.2575 101.5 69.5359C100.04 77.4489 99.3184 86.0425 98.5066 94.5623ZM101.524 97.9079C102.413 98.0712 103.325 98.0712 104.214 97.9079C104.257 97.9014 104.297 97.8811 104.328 97.8501C104.359 97.8191 104.379 97.779 104.386 97.7357C106.075 88.5517 104.501 87.8957 106.026 71.2251C106.846 61.8853 108.076 58.8021 107.83 58.4987C106.502 56.8587 107.322 55.0793 109.011 53.8739C108.191 55.3499 108.42 56.5471 109.076 57.2933C108.872 57.3694 108.697 57.5094 108.578 57.6927C108.459 57.8759 108.402 58.0926 108.416 58.3107C108.429 58.5288 108.513 58.7366 108.654 58.9034C108.795 59.0702 108.987 59.1871 109.199 59.2367C109.496 59.2559 109.789 59.1615 110.019 58.9727C110.249 58.784 110.399 58.5148 110.438 58.2199C110.692 58.3233 110.952 58.4109 111.217 58.4823C110.11 59.1383 110.142 60.5815 111.438 60.5815C111.805 60.6056 112.167 60.4894 112.452 60.2565C112.737 60.0236 112.922 59.6914 112.971 59.3269C112.971 58.4495 112.053 58.8021 114.095 58.7529C113.316 60.3355 115.456 60.7127 115.891 59.1793C115.966 58.9672 115.966 58.7354 115.891 58.5233C119.679 57.7033 117.604 56.2191 115.891 62.6725C114.538 67.7073 115.071 73.7097 115.784 77.8999C114.84 78.6427 113.962 79.4657 113.16 80.3599C112.225 78.4001 111.823 77.5145 111.618 77.1291C111.413 76.7437 111.405 76.8339 111.29 76.8667C110.856 77.0143 109.691 77.4735 108.576 77.9409C109.044 72.9307 109.314 69.8557 110.216 62.5167C110.222 62.4529 110.203 62.3894 110.163 62.3389C110.124 62.2884 110.067 62.2546 110.004 62.2443C109.941 62.2339 109.876 62.2478 109.823 62.2831C109.769 62.3184 109.731 62.3725 109.716 62.4347C109.003 66.8135 108.158 72.4797 107.805 78.2771C106.985 78.6215 106.559 78.7937 106.346 78.9167C106.133 79.0397 106.149 79.0971 106.19 79.2037C106.37 79.6383 106.895 80.8437 107.543 82.3279C106.723 88.6501 104.722 107.846 104.525 110.626C103.241 109.944 102.053 109.095 100.991 108.101C100.782 104.694 100.961 101.274 101.524 97.9079ZM114.874 84.1155C115.333 83.7219 116.055 83.0331 116.514 82.5821C117.686 92.8567 118.498 87.8875 117.572 105.157C117.383 108.65 117.219 111.717 117.326 113.07C115.41 113.198 113.486 113.123 111.586 112.848C111.684 110.757 112.602 92.1597 112.766 90.1999C114.006 89.7093 115.207 89.1254 116.358 88.4533C116.522 88.3057 116.481 88.4861 114.874 84.1155ZM123.549 134.956V136.21C117.449 135.308 112.348 134.57 110.036 134.193C109.995 133.701 109.962 133.299 109.937 133.053C111.512 127.83 113.841 120.892 111.709 115.833C111.422 115.144 111.192 115.759 112.209 113.726C113.752 113.899 115.306 113.954 116.858 113.89C118.31 115.882 117.719 116.186 117.588 117.99C117.129 124.049 120.581 129.511 123.549 134.956ZM123.599 137.063C123.648 137.67 123.738 138.301 123.845 138.924L110.175 136.522C110.175 135.997 110.118 135.472 110.085 134.98C112.816 135.439 117.801 136.202 123.599 137.063ZM110.782 112.717C108.859 112.392 106.991 111.802 105.231 110.962C105.313 110.208 107.625 87.8547 108.084 83.6153C110.339 88.7403 110.954 90.1753 111.176 90.5361C111.282 90.7083 111.299 90.6673 111.356 90.6673C111.577 90.6274 111.794 90.567 112.004 90.4869C111.471 96.4565 110.823 110.544 110.782 112.717ZM111.43 113.594C110.552 115.136 110.47 115.234 110.88 115.94C111.7 117.358 111.75 119.982 111.7 121.614C111.561 124.623 109.339 132.053 109.117 132.782C108.776 133.085 108.353 133.28 107.901 133.346C107.45 133.412 106.989 133.344 106.575 133.152C106.403 133.086 106.461 133.275 106.362 131.971C106.042 127.641 105.206 116.44 104.722 111.602C106.847 112.595 109.108 113.266 111.43 113.594ZM122.77 99.9087C123.148 103.139 124.369 111.504 124.583 112.93L122.877 113.357C122.606 112.537 121.737 109.47 121.401 108.757C121.365 108.69 121.309 108.636 121.241 108.601C121.174 108.567 121.097 108.554 121.022 108.563C120.946 108.573 120.876 108.605 120.819 108.656C120.762 108.707 120.722 108.773 120.704 108.847C120.458 110.175 120.22 111.512 119.982 112.84C119.285 112.906 118.654 112.955 118.072 112.996C118.072 108.847 118.219 104.607 118.465 100.401C119.835 100.294 122.057 100.04 122.77 99.9087ZM119.663 88.2237C119.658 88.1706 119.674 88.1177 119.708 88.0764C119.742 88.0351 119.79 88.0085 119.843 88.0023C125.583 87.3135 125.353 87.2561 125.435 87.4857C125.617 88.0911 125.679 88.7263 125.616 89.3553C125.616 89.5767 125.854 89.4455 120.073 90.1753C119.786 90.2491 119.835 89.9703 119.663 88.2237ZM125.337 112.742C124.32 107.387 124.066 105.312 123.394 99.8021C124.312 99.7217 125.224 99.582 126.124 99.3839C127.103 103.6 127.601 107.913 127.608 112.242C126.821 112.397 126.034 112.578 125.337 112.742ZM128.207 88.4615C128.125 99.6545 128.412 100.458 127.469 102.344C127.28 101.245 127.067 100.138 126.821 99.0641C127.08 98.8811 127.312 98.6631 127.51 98.4163C127.748 98.1293 126.87 87.7563 125.452 80.2533C126.141 79.9909 127.51 79.4333 128.248 79.0561C128.256 82.1803 128.232 85.3701 128.207 88.4615ZM129.79 76.0303C129.607 76.8176 129.139 77.5097 128.478 77.9737C124.976 80.2369 116.637 81.3521 116.555 81.3603C116.516 81.3679 116.479 81.3855 116.449 81.4114C116.419 81.4372 116.396 81.4705 116.383 81.5079C115.816 82.3032 115.152 83.0249 114.406 83.6563C113.971 84.1605 113.403 84.5326 112.766 84.7305C112.266 84.8043 111.053 84.1975 112.397 84.0745C112.755 84.086 113.106 83.9832 113.401 83.7812C113.696 83.5792 113.919 83.2884 114.037 82.9511C114.056 82.8984 114.056 82.8407 114.036 82.7882C114.017 82.7357 113.98 82.6917 113.931 82.6641C113.455 82.4427 113.849 83.5661 111.577 83.4841C111.028 83.4841 110.323 82.7789 111.225 82.8445C112.684 82.9593 113.685 81.9589 113.324 81.6883C113.286 81.657 113.238 81.6399 113.189 81.6399C113.139 81.6399 113.092 81.657 113.053 81.6883C112.422 82.3607 111.479 82.1967 110.528 82.0819C110.06 82.0245 109.708 81.5243 110.323 81.4259C111.143 81.2947 113.152 81.3029 113.381 81.0733C115.841 78.3427 119.384 76.5305 122.27 75.0791C124.935 73.7694 127.488 72.2446 129.904 70.5199C130.199 72.3486 130.16 74.2154 129.79 76.0303ZM129.601 66.7315C130.054 67.412 130.299 68.2099 130.306 69.0275C128.147 70.6416 125.893 72.1257 123.558 73.4719C123.492 73.0045 123.377 72.1435 123.361 71.8319C126.469 70.0689 128.666 68.2567 129.601 66.7315ZM31.0288 9.8973C57.9822 10.5205 122.27 12.6607 122.27 12.6607C123.443 12.6607 124.033 12.7181 124.32 12.7017H124.394C126.682 13.0215 127.986 15.1617 128.412 16.8837C128.622 17.9194 128.71 18.9762 128.674 20.0325C114.464 19.7947 66.174 18.6959 27.06 17.0149C27.06 13.3905 27.4044 10.3811 31.0288 9.8973ZM27.06 106.6C24.9772 106.6 18.4254 106.6 16.3426 106.698C16.3426 104.14 16.195 86.4607 16.1704 83.8941C17.7202 83.9515 24.8378 83.7711 26.4696 83.7301C26.486 104.378 26.24 104.41 27.06 106.6ZM26.4532 76.2599C24.1818 76.2599 17.2774 76.2599 15.7112 76.3337C15.7604 75.3989 15.7932 73.0537 15.8178 71.9303C17.343 71.9303 24.1162 71.7417 26.4778 71.6105C26.445 73.1275 26.445 74.6855 26.445 76.2025L26.4532 76.2599ZM26.4532 70.8725C25.3216 70.8725 15.9654 71.1595 15.4898 71.2005C15.0142 71.2415 15.1044 71.6843 15.0798 72.5043C14.9896 75.2185 14.965 76.3173 15.0142 76.7683C15.0552 77.0717 15.1208 77.0799 15.2356 77.0881C16.3016 77.1619 25.379 77.0143 26.4614 76.9979V82.9921C15.17 83.1233 15.4816 83.1069 15.4816 83.5579C15.4816 83.7711 15.4816 105.378 15.5718 107.256C15.5718 107.641 16.5394 107.543 27.4372 107.453C28.741 109.913 30.832 110.11 33.6118 110.306C36.3916 110.503 97.6374 108.716 100.466 108.617C101.47 109.733 102.678 110.646 104.025 111.307C104.427 115.923 105.009 124.427 105.37 129.855C100.212 130.199 14.35 136.555 11.2996 136.776C11.2996 134.734 10.9306 67.1251 10.9306 67.1251C12.2754 67.1251 24.8706 66.9201 26.4368 66.8709V70.8151L26.4532 70.8725ZM7.38001 141.967C6.43701 140.991 6.83881 143.959 6.83881 65.7065C6.83881 63.2465 8.47881 62.6069 10.3894 62.5003C12.8494 62.3609 17.3594 62.6069 26.4368 62.3445V66.0591C24.5508 66.0591 10.5452 66.2887 10.5452 66.2887C10.4911 66.2905 10.4378 66.3031 10.3886 66.3256C10.3393 66.3481 10.295 66.3802 10.2582 66.4199C10.0942 66.6003 10.5206 137.235 10.5534 137.317C10.5694 137.354 10.5958 137.385 10.6293 137.407C10.6628 137.429 10.702 137.44 10.742 137.44C10.742 137.44 97.1126 131.192 105.419 130.511C105.419 131.036 105.649 133.996 105.682 134.398C94.5952 135.3 8.20001 141.86 7.38001 141.967ZM52.3488 151.405L9.35621 142.483C25.0838 141.458 93.1602 136.243 105.493 135.177C105.351 135.638 105.167 136.086 104.944 136.513C97.1454 137.112 27.224 142.983 27.224 142.983C26.7074 143.032 26.7484 143.803 27.224 143.803L50.5612 148.051C50.6268 148.051 52.3242 147.912 124.509 141.491C124.509 141.598 124.558 141.671 124.64 141.729C125.362 142.18 126.51 141.729 126.51 141.392C126.49 140.958 126.54 140.524 126.657 140.105C126.657 140.105 126.895 140.212 127.33 141.499C127.338 141.527 127.353 141.553 127.373 141.574C127.392 141.595 127.417 141.612 127.444 141.622C128.954 142.161 130.507 142.57 132.086 142.844C132.383 142.849 132.678 142.781 132.943 142.647C133.209 142.512 133.438 142.316 133.611 142.073C133.711 141.84 133.741 141.583 133.695 141.334C133.65 141.084 133.532 140.854 133.357 140.671C131.881 140.082 130.572 139.142 129.544 137.932C140.605 139.572 152.668 141.212 157.219 141.876L52.3488 151.405Z" fill="#474448"/>
</svg>
