<svg width="40" height="40" viewBox="0 0 40 40" fill="none" xmlns="http://www.w3.org/2000/svg">
<path d="M24.1667 16.6666C22.7833 16.6666 21.6667 15.55 21.6667 14.1666V5.83331C21.6667 4.44998 22.7833 3.33331 24.1667 3.33331C25.55 3.33331 26.6667 4.44998 26.6667 5.83331V14.1666C26.6667 15.55 25.55 16.6666 24.1667 16.6666Z" stroke="#474448" stroke-width="2" stroke-linecap="round" stroke-linejoin="round"/>
<path d="M34.1667 16.6666H31.6667V14.1666C31.6667 12.7833 32.7833 11.6666 34.1667 11.6666C35.55 11.6666 36.6667 12.7833 36.6667 14.1666C36.6667 15.55 35.55 16.6666 34.1667 16.6666Z" stroke="#474448" stroke-width="2" stroke-linecap="round" stroke-linejoin="round"/>
<path d="M15.8333 23.3333C17.2167 23.3333 18.3333 24.45 18.3333 25.8333V34.1666C18.3333 35.55 17.2167 36.6666 15.8333 36.6666C14.45 36.6666 13.3333 35.55 13.3333 34.1666V25.8333C13.3333 24.45 14.45 23.3333 15.8333 23.3333Z" stroke="#474448" stroke-width="2" stroke-linecap="round" stroke-linejoin="round"/>
<path d="M5.83334 23.3333H8.33334V25.8333C8.33334 27.2166 7.21667 28.3333 5.83334 28.3333C4.45 28.3333 3.33334 27.2166 3.33334 25.8333C3.33334 24.45 4.45 23.3333 5.83334 23.3333Z" stroke="#474448" stroke-width="2" stroke-linecap="round" stroke-linejoin="round"/>
<path d="M23.3333 24.1666C23.3333 22.7833 24.45 21.6666 25.8333 21.6666H34.1667C35.55 21.6666 36.6667 22.7833 36.6667 24.1666C36.6667 25.55 35.55 26.6666 34.1667 26.6666H25.8333C24.45 26.6666 23.3333 25.55 23.3333 24.1666Z" stroke="#474448" stroke-width="2" stroke-linecap="round" stroke-linejoin="round"/>
<path d="M25.8333 31.6666H23.3333V34.1666C23.3333 35.55 24.45 36.6666 25.8333 36.6666C27.2167 36.6666 28.3333 35.55 28.3333 34.1666C28.3333 32.7833 27.2167 31.6666 25.8333 31.6666Z" stroke="#474448" stroke-width="2" stroke-linecap="round" stroke-linejoin="round"/>
<path d="M16.6667 15.8333C16.6667 14.45 15.55 13.3333 14.1667 13.3333H5.83334C4.45 13.3333 3.33334 14.45 3.33334 15.8333C3.33334 17.2166 4.45 18.3333 5.83334 18.3333H14.1667C15.55 18.3333 16.6667 17.2166 16.6667 15.8333Z" stroke="#474448" stroke-width="2" stroke-linecap="round" stroke-linejoin="round"/>
<path d="M14.1667 8.33331H16.6667V5.83331C16.6667 4.44998 15.55 3.33331 14.1667 3.33331C12.7833 3.33331 11.6667 4.44998 11.6667 5.83331C11.6667 7.21665 12.7833 8.33331 14.1667 8.33331Z" stroke="#474448" stroke-width="2" stroke-linecap="round" stroke-linejoin="round"/>
</svg>
